<svg width="16" height="16" viewBox="0 0 16 16" fill="none" xmlns="http://www.w3.org/2000/svg">
  <!-- Background circle -->
  <circle cx="8" cy="8" r="7.5" fill="#1976D2" />
  <circle cx="8" cy="8" r="6" fill="#2196F3" />
  
  <!-- "S" for Simply -->
  <path d="M7.25 4.5C6.25 4.5 5.5 5 5.5 5.75C5.5 6.5 6 6.75 7 7L8 7.25C9 7.5 9.5 8 9.5 8.75C9.5 9.5 8.75 10 7.75 10C6.75 10 6 9.5 5.75 8.75" stroke="white" stroke-width="1" stroke-linecap="round" />
  
  <!-- Upward arrow for Investments/Growth -->
  <path d="M10.5 7.5L10.5 5L13 5" stroke="white" stroke-width="1" stroke-linecap="round" stroke-linejoin="round" />
  <path d="M10.5 5L13 7.5" stroke="white" stroke-width="1" stroke-linecap="round" stroke-linejoin="round" />
  
  <!-- Coin/investment symbols at bottom -->
  <circle cx="8" cy="11.5" r="1" stroke="white" stroke-width="0.75" />
  <circle cx="10.5" cy="11.5" r="1" stroke="white" stroke-width="0.75" />
  <circle cx="5.5" cy="11.5" r="1" stroke="white" stroke-width="0.75" />
</svg> 